<svg viewBox="0 0 400 150" width="400" height="150" version="1.1" baseProfile="full" xmlns="http://www.w3.org/2000/svg"><style id="js-draw-style-sheet">path{stroke-linecap:round;stroke-linejoin:round;}text{white-space:pre;}</style><path d="M400,150L400,0L0,0L0,150L400,150" fill="#ffffff" class="js-draw-image-background"></path><text data-highp-transform="matrix(0.5945303210463732,0,0,0.4756242568370985,96.4,53.03999999999999)" style="transform: matrix(0.59453, 0, 0, 0.475624, 96.4, 53.04); font-family: sans-serif; font-size: 20px; fill: rgb(0, 0, 0);">CPU</text><text data-highp-transform="matrix(0.5930439952437573,0,0,0.4744351961950059,202.22850000000003,52.98640000000003)" style="transform: matrix(0.593044, 0, 0, 0.474435, 202.229, 52.9864); font-family: sans-serif; font-size: 20px; fill: rgb(0, 0, 0);">I/O</text><path d="M154.9,63l18.2,0l0-6.8l-18.2,0l0-6.8l-10.2,10.2l10.2,10.2l0-6.8" fill="#000000"></path><path d="M170.7,67.6696l2.394-1.9152l76.50825,0l0-32.2392l-76.50825,0l0,32.2392l-2.394,1.9152l0-36.0696l81.29625,0l0,36.0696l-81.29625,0" fill="#000000"></path><path d="M329.4,99.1l.6,0l0-.6l-.6,0l0,.6l0-.6l.6,0l0,.6l-.6,0" fill="#000000"></path><path d="M91.2,72.4l0,18.2l6.8,0l0-18.2l6.8,0l-10.2-10.2l-10.2,10.2l6.8,0" fill="#000000"></path><path d="M131.3,82.1l0-18.2l-6.8,0l0,18.2l-6.8,0l10.2,10.2l10.2-10.2l-6.8,0" fill="#000000"></path><path d="M275,123.644745l2.33901281250007-1.91919l74.75095113281242,0l0-32.306365l-74.75095113281242,0l0,32.306365l-2.33901281250007,1.91919000000004l0-36.144745l79.4289767578125,0l0,36.14474500000003l-79.42897675781256,0" fill="#000000"></path><path d="M268.5,37.9l-18.2,0l0,6.8l18.2,0l0,6.8l10.2-10.2l-10.2-10.2l0,6.8" fill="#000000"></path><path d="M165.7,36.7l-18.2,0l0,6.8l18.2,0l0,6.8l10.2-10.2l-10.2-10.2l0,6.8" fill="#000000"></path><path d="M257.7,61.8l18.2,0l0-6.8l-18.2,0l0-6.8l-10.2,10.2l10.2,10.2l0-6.8" fill="#000000"></path><text data-highp-transform="matrix(0.5942795035671818,0,0,0.4754236028537454,297.98374001281945,109.32710657104636)" style="transform: matrix(0.59428, 0, 0, 0.475424, 297.984, 109.327); font-family: sans-serif; font-size: 20px; fill: rgb(0, 0, 0);">VRAM</text><path d="M275.59,66.93693625l2.28673757812499-1.8762975l73.0803217675782,0l0-31.58434125000002l-73.0803217675782,0l0,31.58434125000001l-2.28673757812499,1.87629750000001l0-35.33693625l77.6537969238281,0l0,35.33693625l-77.6537969238281,0" fill="#000000"></path><path d="M69.8375,67.76l2.34-1.92l74.7825,0l0-32.32l-74.7825,0l0,32.32l-2.34,1.92l0-36.16l79.4625,0l0,36.16l-79.4625,0" fill="#000000"></path><text data-highp-transform="matrix(0.5809977890903686,0,0,0.46479823127229486,303.1291710937501,52.55198875000005)" style="transform: matrix(0.580998, 0, 0, 0.464798, 303.129, 52.552); font-family: sans-serif; font-size: 20px; fill: rgb(0, 0, 0);">VDP</text><path d="M335.9,81.2l0-18.2l-6.8,0l0,18.2l-6.8,0l10.2,10.2l10.2-10.2l-6.8,0" fill="#000000"></path><path d="M295.8,71.5l0,18.2l6.8,0l0-18.2l6.8,0l-10.2-10.2l-10.2,10.2l6.8,0" fill="#000000"></path><path d="M68.3,123.644745l2.3989875-1.91919l76.66764218749998,0l0-32.306365l-76.66764218749998,0l0,32.306365l-2.3989875,1.91919l0-36.144745l81.46561718749999,0l0,36.14474500000003l-81.46561718750004,0" fill="#000000"></path><text data-highp-transform="matrix(0.5942795035671818,0,0,0.4397668326397145,80.5837400128196,109.2725735782179)" style="transform: matrix(0.59428, 0, 0, 0.439767, 80.5837, 109.273); font-family: sans-serif; font-size: 20px; fill: rgb(0, 0, 0);">ROM/RAM</text><path d="M152,88.8l.6,0l0-.6l-.6,0l0,.6l0-.6l.6,0l0,.6l-.6,0" fill="#000000"></path></svg>